<svg version="1" xmlns="http://www.w3.org/2000/svg" width="1280" height="1280" viewBox="0 0 960.000000 960.000000"><path d="M459.7 3.6c-.1.1-5.4.5-11.7.9-6.3.3-12.6.8-14 1-1.4.2-5.2.6-8.5 1-3.3.3-7.1.7-8.5 1-1.4.2-4.5.7-7 1-2.5.3-5.6.7-7 1-1.4.3-3.9.7-5.7.9-1.8.3-4 .7-5 1-1 .2-3.4.7-5.3 1-5.1.8-7.2 1.3-20.5 4.6-6.6 1.7-12.8 3.2-13.8 3.5-5.1 1.2-20.7 6.2-32.2 10.2-52.2 18.3-103.8 47.8-146.8 84-19.4 16.3-40.5 37.4-56.7 56.4-3 3.5-5.7 6.6-6 6.9-.6.6-4.3 5.4-13.1 17-24.9 33-46.6 72.2-62.5 112.9-4.4 11.1-10.2 27.8-10.9 31.4-.2.9-.6 2.1-.9 2.6-.5.8-9.2 34.5-10 38.6-.2 1.1-.9 4.7-1.5 8s-1.3 7.1-1.6 8.5c-.3 1.3-.7 4.2-1 6.5-.3 2.2-1 6.7-1.5 10-4.8 30.7-5.9 83.8-2.5 112.5.2 1.9.7 5.7 1 8.5 1.2 11 1.6 14.1 2 15.5.2.8.7 3.7 1 6.5.5 4 2.6 15.2 7 36 .3 1.1 2.1 7.6 4 14.5 2 6.9 3.8 13.2 4 14.1.4 2.1 2.3 7.4 7.4 21.5 31.4 87.5 89.9 165.6 165.6 221.4 9.1 6.7 38 26 38.9 26 .3 0 4.4 2.3 9.3 5.1 14.8 8.6 34.6 18.3 52.2 25.6 10.4 4.3 36.8 13.9 41 14.8.9.2 7.2 2 14.1 4 6.9 1.9 13.4 3.7 14.5 4 1.1.2 7.4 1.5 14 2.9 12.4 2.6 20.7 4.1 28.5 5.2 2.5.3 5.6.7 7 .9 1.4.2 5.4.7 9 1.1 3.6.3 7.3.8 8.2 1 9.5 1.7 57.2 2.4 77.3 1.1 127.8-8.2 248.1-68.8 331.5-166.8 3-3.5 5.7-6.6 6-6.9.6-.6 4.2-5.3 13.1-17 11.1-14.7 24-34.6 35.1-54 15.2-26.5 35.8-77.1 42.3-103.7.3-1 1.8-7.2 3.5-13.8 1.6-6.6 3.2-13.4 3.5-15 .3-1.7 1-5 1.5-7.5 1.3-5.9 2.8-15.4 3.5-21 .3-2.5.7-5.5.9-6.7.3-1.2.8-5.3 1.1-9 .4-3.7.9-7.5 1-8.4 2.4-12.8 2.4-72.3 0-91.9-.2-1.9-.7-5.8-1-8.5-1.2-11-1.6-14.1-2-15.5-.2-.8-.7-3.7-1-6.4-1.7-15.1-9.7-48-17.6-72.2-20.7-63.7-52.6-118.5-100-172-7.4-8.3-32.1-32.3-40.5-39.4-4.9-4.1-9.8-8.3-10.9-9.3-7.6-7-55.7-40.7-58-40.7-.2 0-2.6-1.3-5.3-2.9-24.6-14.5-53.8-27.9-81.9-37.6-8.4-2.8-30.9-9.7-36.3-11-8.6-2.1-34-7.5-39.5-8.4-11.6-1.9-16.3-2.5-34.5-4.6-12.3-1.4-65.2-2.9-66.3-1.9zm170.1 201.9c6 .8 16.1 4.6 22.9 8.6 4 2.4 18.2 16 47.9 45.9 91.7 92.4 88.7 89.1 93.7 99.8 4.9 10.4 6.7 19.3 6.3 30.7-.4 10.7-.8 13-3.2 20.3-3.5 10.1-8.6 18.3-16.6 26.2-13.8 13.7-33.8 16.3-50.3 6.6-2.2-1.4-19.6-18.1-38.6-37.3-37.7-37.9-40.6-40.3-55.7-44.9-17.7-5.4-37.3-2.9-53.4 7-8 4.9-6.6 3.6-45.7 43.1-17.3 17.5-33.5 33.1-36 34.7-12.5 7.9-30.8 7.9-43.5.1-2.2-1.4-19.6-18.2-38.6-37.3-25.6-25.8-36-35.6-40.5-38.1-6.5-3.8-13.6-6.8-17.5-7.6-1.4-.2-4.3-.8-6.4-1.3-5.7-1.3-20.2-.5-27.1 1.5-7.6 2.1-15.5 5.7-21.3 9.7-2.5 1.7-20.2 18.9-39.4 38.3-23.9 24.1-36.4 36.1-39.8 37.9-13.6 7.4-28.2 7.4-40.8 0-10.2-6-21-21.3-24.7-35-3.7-13.5-2.8-29.7 2.2-42.3 4.6-11.6 10.2-18.8 32.4-41.3 11.8-11.9 40.1-40.6 62.9-63.8 22.8-23.1 43.8-43.8 46.6-45.9 22.2-17 53.4-18.2 76.1-3.1 2.6 1.8 26 24.7 51.9 50.8l47.1 47.6L496 301c84.6-85.8 83.4-84.7 94.1-89.7 5.8-2.8 16.3-5.7 22.9-6.6 2.9-.3 10.6 0 16.8.8zM349.6 526c11 2.5 14.4 5.4 50.6 41.9 18.9 19 36.3 36.3 38.8 38.3 15.2 12.3 38.5 17.1 59.5 12.2 4.6-1 14.1-5.4 19.5-8.9 7.1-4.7 8.6-6.2 49.5-47.5 15.4-15.5 29.8-29.4 31.9-30.7 13.2-8.4 31.3-8.6 44.4-.6 5.1 3.2 12.6 10.7 16.7 16.8 12.1 18.4 15.1 40.8 8 61.6-4.7 13.7-7.9 17.9-32.6 43-86 87.4-112.5 113.7-117.8 117.1-12.5 7.9-22.9 10.8-37.9 10.9-13.6 0-26.9-4.3-38.1-12.1-3.1-2.2-32.1-30.8-64.6-63.6-32.4-32.9-61.5-62.3-64.6-65.3-15.2-15.2-22.1-30.1-23.3-49.9-1.5-25.2 14.2-53.3 34.2-61.1 9.4-3.7 16.1-4.2 25.8-2.1z"/></svg>