<svg height="144.91" viewBox="0 0 500 144.91" width="500" xmlns="http://www.w3.org/2000/svg" xmlns:xlink="http://www.w3.org/1999/xlink"><clipPath id="a"><path d="m0 0h500v144.91h-500z"/></clipPath><g clip-path="url(#a)"><ellipse cx="63.982" cy="63.981" rx="63.982" ry="63.981" transform="matrix(0 1 -1 0 127.962 16.949)"/><ellipse cx="17.371" cy="17.371" rx="17.371" ry="17.371" transform="matrix(0 1 -1 0 153.387 0)"/><path d="m.08 61.75h10.452l6.3-32.714c.878-4.628 1.835-11.969 1.835-11.969h.16s.08 6.782.4 11.011l2.715 33.672h10.851l15.719-33.75c2.234-4.787 4.708-10.931 4.708-10.931h.16s-1.835 7.022-2.793 11.969l-6.3 32.714h10.613l11.006-57.052h-16.437l-13.723 29.6c-3.271 7.1-5.825 14.761-5.825 14.761h-.08s-.08-8.218-.718-16.2l-2.154-28.161h-15.878zm81.784 1.2c13.963 0 22.74-11.49 22.74-24.575 0-12.128-8.458-18.671-18.91-18.671-13.963 0-23.059 11.25-23.059 24.176 0 12.52 8.537 19.067 19.229 19.067zm-8.538-18.435c0-7.9 3.59-16.756 11.809-16.756 6.3 0 8.777 4.947 8.777 10.293 0 7.819-3.511 16.836-11.809 16.836-6.303 0-8.777-4.788-8.777-10.373zm50.905 18.432c13.963 0 22.74-11.49 22.74-24.575 0-12.128-8.458-18.671-18.91-18.671-13.961-.001-23.061 11.25-23.061 24.176 0 12.523 8.54 19.07 19.232 19.07zm-8.537-18.432c0-7.9 3.59-16.756 11.809-16.756 6.3 0 8.777 4.947 8.777 10.293 0 7.819-3.511 16.836-11.809 16.836-6.303 0-8.777-4.788-8.777-10.373zm48.113-23.7h-10.452l-7.9 40.932h10.692l4.309-22.341c1.117-5.984 4.708-10.612 9.734-10.612 4.548 0 6.623 2.952 5.585 8.378l-4.787 24.578h10.692l4.947-25.85c1.835-9.575-2.872-16.2-11.011-16.2-5.825 0-9.256 2.553-12.766 7.58h-.239zm22.9 40.932h11.809l3.984-20.663h13.883c12.766 0 21.463-7.341 21.463-19.549 0-10.692-7.261-16.836-18.192-16.836h-21.937zm20.9-47.076h10.532c5.186 0 7.9 2.793 7.9 7.42 0 6.782-4.867 9.655-10.213 9.655h-11.486zm50.75 47.079h10.133v-.4c-.638-.957-.878-2.872-.319-5.665l3.829-19.627c2.234-11.889-5.426-16.277-15.559-16.277-10.532 0-17 5.107-18.351 13.485h9.575c.957-4.069 3.91-5.825 8.378-5.825 4.069 0 6.383 1.6 6.383 4.548 0 4.069-2.952 4.388-10.612 5.027-9.974.8-18.591 2.793-18.591 13.644 0 8.458 6.7 12.048 13.006 12.048 5.9 0 8.936-2.793 11.41-5.426h.16a9.96 9.96 0 0 0 .558 4.468zm-14.841-12.05c0-5.585 5.665-5.346 9.575-6.064a31.891 31.891 0 0 0 7.819-2.075l-1.277 6.463c-.8 3.75-4.388 7.261-9.974 7.261-3.589.002-6.143-1.913-6.143-5.585zm25.054 25.455h6.7c7.9 0 11.41-3.192 15.479-11.41l21.151-42.927h-10.856l-8.458 18.591c-1.755 3.83-3.75 9.256-3.75 9.256h-.16s-.638-5.506-1.2-9.256l-2.793-18.591h-11.17l5.9 29.123a50.221 50.221 0 0 1 1.356 9.176c0 5.107-2.553 7.58-7.1 7.58h-3.431z" transform="translate(157.466 51.018)"/><path d="m.4 3.839h4.109l-2.294 11.848h2.853l2.294-11.848h4.129l.459-2.414h-11.091zm9.555 11.848h2.613l1.576-8.178c.219-1.157.459-2.992.459-2.992h.04s.02 1.7.1 2.753l.678 8.418h2.713l3.93-8.438c.559-1.2 1.177-2.733 1.177-2.733h.04s-.459 1.755-.7 2.992l-1.576 8.178h2.653l2.753-14.262h-4.111l-3.431 7.4c-.818 1.775-1.456 3.69-1.456 3.69h-.013s-.02-2.055-.18-4.049l-.539-7.041h-3.97z" transform="translate(473.589 53.196)"/></g></svg>