<svg height="1658pt" preserveAspectRatio="xMidYMid meet" viewBox="0 0 1658 1658" width="1658pt" xmlns="http://www.w3.org/2000/svg"><path d="m7960 16569c-1779-66-3495-713-4888-1842-411-333-863-783-1197-1192-1579-1932-2200-4448-1704-6910 261-1293 854-2540 1704-3580 334-409 786-859 1197-1192 1930-1564 4432-2175 6883-1682 1047 211 2080 647 2980 1257 755 511 1436 1161 1989 1897 1496 1990 2011 4564 1400 6995-370 1474-1129 2796-2225 3875-379 372-733 664-1149 947-1303 886-2779 1368-4370 1428-279 11-319 10-620-1zm2781-3755c167-29 349-105 473-198 86-65 1966-1768 2044-1852 238-254 307-619 180-948-39-101-129-235-218-324-165-165-333-230-563-219-211 10-310 60-558 284-96 87-326 294-510 461-184 166-361 322-393 346-126 94-279 162-445 198-116 25-319 29-431 9-171-30-358-108-480-200-36-27-294-257-575-511-280-255-528-476-550-493-63-47-193-106-270-122-93-19-248-19-338 1-83 19-176 59-240 102-24 17-268 234-543 482-274 249-528 474-564 502-114 86-291 163-460 198-155 32-374 21-540-27-107-31-254-100-334-157-33-24-299-260-591-525-291-265-554-498-583-517-249-166-605-149-845 41-123 98-250 296-299 470-31 108-33 343-4 450 25 97 96 244 155 324 70 93 82 105 1091 1017 498 450 934 845 970 877 89 81 170 137 265 185 388 193 869 154 1205-97 36-26 389-341 785-700 396-358 723-651 727-651s297 262 650 583c354 320 695 629 758 686 214 193 386 283 622 326 103 19 296 18 409-1zm-2202-5181c209-33 420-119 581-235 146-105 2366-1930 2440-2006 123-126 212-277 256-438 25-93 30-284 10-385-59-294-291-583-555-694-278-116-619-90-854 65-40 26-333 262-652 525-319 262-611 500-650 527-96 68-270 151-393 187-302 89-653 80-942-24-103-37-238-108-324-170-39-28-325-260-636-516-668-549-644-530-745-579-136-66-226-85-400-84-206 0-342 38-492 136-193 126-350 340-415 565-33 114-33 343 0 458 47 163 149 331 274 451 86 84 2377 1964 2448 2009 303 196 672 269 1049 208z" transform="matrix(.1 0 0 -.1 0 1658)"/></svg>